<svg xmlns="http://www.w3.org/2000/svg" aria-hidden="true" style="position:absolute;width:0;height:0;overflow:hidden">
  <defs>
    <symbol id="icon-logo" viewBox="0 0 32 32">
      <path fill="#ffc609" d="M15.922 24.758 5.013 5.866h21.445L15.922 24.758zM5.9 6.38l10.015 17.344L25.587 6.38H5.899z" style="fill:var(--color1, #ffc609)"/>
      <path fill="#ffc609" d="M15.908 22.616 6.832 6.995h17.841l-8.765 15.621zM7.137 7.171l8.769 15.092 8.468-15.092H7.137z" style="fill:var(--color1, #ffc609)"/>
      <path fill="#ffc609" d="M16.657 12.263c0 .412-.331.745-.739.745s-.739-.333-.739-.745.331-.745.739-.745.739.334.739.745zM4.093 4.96c0 .329-.265.596-.592.596s-.592-.268-.592-.596c0-.329.265-.596.592-.596s.592.267.592.596zM28.364 4.96c0 .329-.265.596-.592.596s-.592-.268-.592-.596c0-.329.265-.596.592-.596s.592.267.592.596zM16.517 26.313c0 .33-.265.596-.592.596s-.592-.267-.592-.596c0-.329.265-.596.592-.596s.592.267.592.596z" style="fill:var(--color1, #ffc609)"/>
      <path fill="#ffc609" d="m5.491 6.048-.089.151 15.304 9.142.089-.151L5.491 6.048z" style="fill:var(--color1, #ffc609)"/>
      <path fill="#ffc609" d="m26.134 5.961-15.395 9.696.093.15 15.395-9.696-.093-.15z" style="fill:var(--color1, #ffc609)"/>
      <path fill="#ffc609" d="M16.005 6.123h-.175v18.598h.175V6.123z" style="fill:var(--color1, #ffc609)"/>
    </symbol>
    <symbol id="icon-menu" viewBox="0 0 32 32">
      <path fill="none" stroke="#fff" stroke-linecap="round" stroke-width="1.454" d="M24.727 21.818H7.272M24.727 16H7.272M24.727 10.182H7.272" style="stroke:var(--color2, #fff)"/>
    </symbol>
    <symbol id="icon-star" viewBox="0 0 32 32">
      <path fill="#ffc609" d="m7.822 7.217 2.709 6.194-6.532 2.158 6.291 2.562-3.236 5.87 6.644-2.509 2.515 6.509 2.192-6.25 5.773 3.033-2.58-6.439L28 16.006l-6.007-2.23L24.945 8l-6.4 2.649-2.332-6.648-2.373 6.143-6.018-2.926zm1.323 1.42 3.369 2.829 1.32 2.121-2.081-1.4-2.608-3.551zm-2.958 6.989 4.382-.395 2.436.558-2.46.49-4.358-.653zm5.792 4.565L8.35 22.679l2.942-3.28 2.207-1.191-1.521 1.982zm4.115 6.056-.559-4.37.542-2.448.506 2.446-.489 4.372zm6.162-10.765 4.361.583-4.382.465-2.437-.595 2.457-.453zm-2.116-3.727 3.672-2.435-2.989 3.229-2.182 1.217 1.498-2.011zm.432 8.178 2.66 3.504-3.418-2.781-1.295-2.147 2.053 1.423zM16.094 5.815l.489 4.372-.506 2.446-.542-2.448.56-4.37zM16 13.579a2.421 2.421 0 1 1 .001 4.843A2.421 2.421 0 0 1 16 13.579z" style="fill:var(--color1, #ffc609)"/>
    </symbol>
    <symbol id="icon-close" viewBox="0 0 32 32">
      <path fill="#fff" d="m8.533 25.333-1.867-1.867 7.467-7.467-7.467-7.467 1.867-1.867L16 14.132l7.467-7.467 1.867 1.867-7.467 7.467 7.467 7.467-1.867 1.867L16 17.866l-7.467 7.467z" style="fill:var(--color2, #fff)"/>
    </symbol>
  </defs>
</svg>
